<svg xmlns="http://www.w3.org/2000/svg" viewBox="0 0 198 250" width="198" height="250">
	<style>
		tspan { white-space:pre }
		.shp0 { fill: #cd2b2b } 
		.shp1 { fill: #ffffff } 
	</style>
	<g >
		<path class="shp0" d="M0.15 0.2C0.01 0.31 -0.07 35.37 -0.04 78.12C0 123.22 0.14 157.02 0.3 158.66C0.45 160.21 0.77 162.81 1.02 164.44C1.27 166.07 1.61 168.21 1.79 169.19C1.97 170.17 2.56 172.7 3.12 174.82C3.67 176.94 4.52 179.88 4.99 181.35C5.47 182.81 6.36 185.28 6.96 186.83C7.57 188.38 8.83 191.25 9.76 193.21C10.69 195.17 12.29 198.24 13.33 200.03C14.36 201.82 16.14 204.69 17.29 206.41C18.43 208.12 20.11 210.45 21.02 211.6C21.92 212.74 23.88 215.07 25.37 216.79C26.87 218.5 29.27 221.03 30.72 222.42C32.16 223.81 34.55 225.95 36.01 227.18C37.48 228.4 39.21 229.82 39.87 230.32C40.52 230.82 42.12 231.97 43.42 232.87C44.73 233.77 47.13 235.31 48.76 236.29C50.39 237.27 53.12 238.76 54.84 239.6C56.55 240.44 58.28 241.31 58.69 241.53C59.1 241.75 61 242.55 62.91 243.3C64.83 244.05 66.53 244.66 66.69 244.66C66.85 244.66 67.22 244.8 67.51 244.96C67.79 245.12 69.23 245.6 70.69 246.02C72.16 246.45 74.16 246.99 75.14 247.24C76.12 247.48 77.78 247.87 78.84 248.1C79.9 248.33 81.57 248.65 82.55 248.8C83.53 248.95 84.93 249.16 85.66 249.27C86.4 249.37 87.66 249.58 88.48 249.73C89.29 249.88 93.83 250 98.56 250C105.63 250 107.89 249.89 111.3 249.39C113.58 249.06 116.52 248.58 117.82 248.32C119.13 248.06 121.13 247.61 122.27 247.32C123.41 247.02 125.54 246.43 127.01 246C128.48 245.57 130.61 244.89 131.75 244.48C132.89 244.07 135.43 243.06 137.38 242.22C139.34 241.38 142.21 240.03 143.76 239.22C145.31 238.41 147.07 237.43 147.68 237.05C148.3 236.67 148.86 236.36 148.94 236.36C149.03 236.36 150.59 235.36 152.43 234.15C154.26 232.93 157.35 230.69 159.3 229.18C161.24 227.66 164.56 224.76 166.68 222.72C168.8 220.68 171.61 217.74 172.93 216.19C174.26 214.64 175.8 212.77 176.37 212.04C176.93 211.31 177.5 210.57 177.62 210.41C177.75 210.25 178.35 209.45 178.96 208.63C179.56 207.81 181.07 205.55 182.29 203.59C183.52 201.63 185.6 197.89 186.92 195.28C188.24 192.67 189.92 189.01 190.66 187.13C191.39 185.25 192.36 182.58 192.81 181.2C193.26 179.81 193.73 178.28 193.85 177.79C193.98 177.3 194.34 175.9 194.67 174.67C195 173.45 195.48 171.45 195.73 170.23C195.99 169 196.41 166.73 196.66 165.18C196.91 163.63 197.28 160.9 197.46 159.1C197.71 156.74 197.83 134.39 197.9 78.07L198 0.3C196.97 0.07 152.51 0.01 98.53 0C44.56 0 0.28 0.09 0.15 0.2Z" />
		<path class="shp1" d="M9.57 84.89L9.66 161.48C10.65 167.22 11.14 169.89 11.39 171.12C11.64 172.34 11.98 173.87 12.15 174.53C12.33 175.18 12.68 176.45 12.93 177.34C13.19 178.24 13.73 179.97 14.14 181.2C14.55 182.42 15.35 184.62 15.93 186.09C16.51 187.56 17.76 190.33 18.71 192.24C19.67 194.16 21.3 197.16 22.35 198.92C23.39 200.67 25.44 203.71 26.9 205.66C28.36 207.62 30.69 210.49 32.07 212.04C33.45 213.59 35.83 216.04 37.37 217.49C38.91 218.93 41.36 221.08 42.83 222.26C44.3 223.44 46.77 225.27 48.31 226.33C49.86 227.39 52.4 229 53.95 229.9C55.49 230.8 57.9 232.11 59.28 232.8C60.67 233.49 63.53 234.76 65.65 235.62C67.77 236.47 70.64 237.53 72.03 237.97C73.41 238.41 75.88 239.09 77.51 239.48C79.14 239.87 82.01 240.46 83.88 240.78C85.76 241.1 89.09 241.52 91.29 241.72C93.8 241.94 97.56 242.01 101.37 241.9C104.71 241.8 108.85 241.51 110.56 241.26C112.27 241.01 115.01 240.55 116.64 240.23C118.27 239.9 121.53 239.09 123.9 238.41C126.26 237.73 130 236.45 132.2 235.57C134.4 234.68 137.67 233.22 139.46 232.32C141.25 231.42 143.85 230 145.24 229.17C146.63 228.34 148.89 226.85 150.28 225.87C151.66 224.89 153.86 223.22 155.17 222.16C156.47 221.1 158.47 219.35 159.61 218.28C160.74 217.22 162.81 215.14 164.2 213.66C165.59 212.19 167.64 209.86 168.76 208.47C169.87 207.09 172.03 204.09 173.55 201.81C175.07 199.53 177.23 195.86 178.36 193.65C179.49 191.45 180.89 188.52 181.47 187.13C182.05 185.74 182.95 183.41 183.46 181.94C183.98 180.47 184.72 178.14 185.1 176.75C185.49 175.36 186.15 172.49 186.58 170.37C187.01 168.25 187.55 164.72 187.78 162.51C188.15 159.14 188.21 146.77 188.22 83.41L188.22 8.3L9.47 8.3" />
		<path class="shp0" d="M18.08 16.98C18.08 17.18 18.08 26.76 18.08 38.26C18.09 54.57 18.17 59.21 18.45 59.38C18.66 59.5 54.97 59.57 99.15 59.53L179.47 59.46L179.58 16.61C34.43 16.61 18.08 16.68 18.08 16.98Z" />
		<path class="shp1" d="M31.12 26.88C30.39 27.15 29.06 27.86 28.16 28.46C27.16 29.13 26.04 30.28 25.27 31.39C24.58 32.39 23.79 33.98 23.53 34.92C23.21 36.04 23.09 37.39 23.16 38.86C23.24 40.61 23.47 41.5 24.21 43.01C24.72 44.06 25.72 45.51 26.43 46.23C27.14 46.95 28.18 47.83 28.75 48.19C29.32 48.55 30.52 49.08 31.42 49.37C32.57 49.74 33.65 49.86 35.12 49.77C36.62 49.68 37.72 49.4 39.06 48.77L40.93 47.89C41.65 49.01 42.09 49.23 42.68 49.23C43.17 49.23 43.77 49.16 44.02 49.08C44.38 48.96 44.46 48.29 44.46 45.52L44.46 42.11C41.01 42.11 40.82 42.19 39.48 43.37C38.69 44.07 37.53 44.8 36.89 45C36.24 45.2 35.25 45.37 34.68 45.37C34.11 45.38 32.98 45.15 32.16 44.87C31.26 44.57 30.22 43.9 29.49 43.16C28.84 42.49 28.07 41.29 27.78 40.47C27.5 39.66 27.26 38.6 27.26 38.11C27.26 37.62 27.47 36.62 27.73 35.88C27.99 35.15 28.63 34.04 29.14 33.41C29.67 32.77 30.8 31.93 31.72 31.5C33.03 30.89 33.63 30.77 34.83 30.9C35.64 30.99 36.88 31.35 37.57 31.7C38.26 32.04 39.26 32.72 39.79 33.2C40.64 33.97 40.98 34.08 42.61 34.09L44.46 34.1L44.46 26.99C41.95 26.96 41.55 27.1 41.2 27.58L40.76 28.21C37.63 26.8 36.62 26.58 34.83 26.5C33.18 26.44 32.05 26.55 31.12 26.88ZM55.05 28.53C54.67 29.39 52.56 34.28 50.37 39.39C47.03 47.18 46.46 48.72 46.83 48.96C47.08 49.11 48.21 49.2 49.35 49.16L51.43 49.08L53.5 44.77L62.1 44.77L64.17 49.08C67.96 49.24 68.72 49.16 68.97 48.88C69.24 48.57 69.01 47.78 67.91 45.23C67.14 43.43 66.21 41.3 65.84 40.48C65.47 39.66 64.01 36.33 62.59 33.07L60.01 27.14L55.74 26.96M69.67 27.18C69.43 27.27 69.27 27.49 69.3 27.68C69.33 27.87 71.26 32.73 73.58 38.49L77.81 48.95L81.96 48.95C82.95 46.52 84.59 42.55 86.24 38.55C87.89 34.56 89.57 30.52 89.97 29.58C90.37 28.64 90.7 27.68 90.7 27.43C90.7 27.07 90.23 26.99 88.26 26.98L85.81 26.97C82.42 35.6 81.19 38.68 80.88 39.37C80.58 40.06 80.19 40.63 80.03 40.63C79.87 40.63 79.2 39.19 78.56 37.44C77.91 35.69 76.81 32.78 76.11 30.99C75.41 29.2 74.74 27.56 74.62 27.36C74.47 27.11 73.68 26.99 72.25 27.01C71.07 27.02 69.91 27.1 69.67 27.18ZM99.94 27.49C99.78 27.79 97.7 32.53 95.32 38.03C92.94 43.54 91 48.24 91 48.49C91 48.73 91.2 49 91.44 49.08C91.69 49.16 92.65 49.23 93.59 49.23C94.53 49.24 95.51 49.07 95.77 48.86C96.03 48.66 96.54 47.75 96.91 46.86C97.28 45.96 97.74 45.05 97.92 44.84C98.18 44.54 99.23 44.47 102.26 44.54L106.26 44.63C107.72 47.62 108.28 48.65 108.46 48.86C108.66 49.08 109.54 49.23 110.71 49.23C111.77 49.23 112.83 49.16 113.08 49.08C113.32 49 113.53 48.77 113.53 48.56C113.53 48.36 112.61 46.06 111.48 43.45C110.35 40.84 108.29 36.1 106.91 32.92L104.39 27.14C100.56 26.98 100.18 27.05 99.94 27.49ZM117.97 27.36C117.96 27.56 117.96 32.47 117.97 38.26C117.97 46.36 118.06 48.83 118.34 49C118.54 49.12 121.41 49.22 124.71 49.22C128.01 49.23 130.92 49.16 131.16 49.08C131.5 48.97 131.6 48.44 131.6 46.86C131.6 45.14 131.52 44.75 131.09 44.62C130.8 44.53 128.9 44.47 126.86 44.48C124.82 44.5 122.99 44.51 122.79 44.5C122.5 44.49 122.42 42.53 122.42 35.74L122.42 26.99C118.61 26.99 117.97 27.09 117.97 27.36ZM135.93 27.15C135.77 27.28 135.68 31.93 135.71 38.16L135.75 48.93L140.65 48.78L140.79 40.63C142.93 40.61 143.08 40.72 143.8 42.03C144.22 42.81 145.21 44.65 146 46.12C146.78 47.58 147.56 48.88 147.74 49C147.91 49.12 149.06 49.23 150.28 49.24C151.74 49.25 152.62 49.12 152.85 48.87C153.12 48.57 152.68 47.65 150.86 44.63C149.57 42.51 148.52 40.54 148.51 40.26C148.5 39.97 148.73 39.65 149.02 39.55C149.3 39.44 149.97 39.04 150.5 38.66C151.03 38.27 151.75 37.39 152.1 36.7C152.52 35.86 152.74 34.85 152.75 33.66C152.77 32.37 152.59 31.53 152.12 30.62C151.76 29.93 151.1 29.08 150.65 28.74C150.2 28.4 149.37 27.92 148.8 27.67C148.03 27.34 146.23 27.18 141.98 27.07C138.8 26.99 136.08 27.02 135.93 27.15ZM153.85 27.42C153.84 27.67 155.02 29.64 156.46 31.81C157.9 33.97 159.64 36.64 160.31 37.74L161.54 39.74L161.54 48.93C165.45 48.93 166.6 48.83 166.61 48.71C166.63 48.59 166.67 46.55 166.71 44.19L166.78 39.89C169.01 36.21 170.77 33.47 172.13 31.44C173.48 29.4 174.59 27.56 174.59 27.36C174.58 27.09 173.82 26.99 171.77 26.99L168.95 26.99C167.42 29.4 166.42 31.14 165.74 32.4C165.06 33.66 164.37 34.66 164.2 34.62C164.03 34.58 162.92 32.88 161.74 30.84L159.58 27.14C154.31 26.98 153.86 27.04 153.85 27.42Z" />
		<path class="shp0" d="M140.94 31.5C140.83 31.75 140.78 32.79 140.84 33.82C140.94 35.62 140.98 35.7 141.83 35.92C142.32 36.05 143.55 36.06 144.56 35.94C145.7 35.82 146.6 35.53 146.93 35.21C147.24 34.9 147.46 34.25 147.46 33.66C147.46 32.99 147.23 32.4 146.79 31.96C146.21 31.39 145.73 31.27 143.63 31.18C141.66 31.09 141.11 31.15 140.94 31.5ZM57.39 34.33C57.32 34.45 56.84 35.65 56.34 37C55.84 38.34 55.43 39.58 55.43 39.74C55.43 39.91 56.42 40.04 57.8 40.04C59.1 40.04 60.17 39.94 60.17 39.81C60.17 39.69 59.72 38.36 59.18 36.85C58.64 35.34 58.05 34.1 57.86 34.1C57.68 34.1 57.47 34.2 57.39 34.33ZM100.71 37C100.14 38.42 99.72 39.69 99.78 39.81C99.84 39.94 100.87 40.04 102.06 40.04C103.26 40.04 104.29 39.97 104.36 39.88C104.43 39.8 104.02 38.53 103.45 37.06C102.88 35.6 102.26 34.4 102.07 34.4C101.89 34.4 101.27 35.57 100.71 37ZM18.1 68.41C17.72 68.53 17.67 73.82 17.73 108.42C17.76 130.34 17.88 148.33 18.01 148.4C18.13 148.47 36.24 130.59 58.24 108.67C90.49 76.56 98.17 68.77 97.81 68.52C97.52 68.32 84.4 68.22 57.95 68.24C36.27 68.25 18.33 68.32 18.1 68.41ZM101.21 68.58C101.08 68.81 102.64 70.59 105.28 73.25C107.63 75.62 122.54 90.83 138.42 107.06C154.3 123.29 169.96 139.26 173.23 142.56C176.5 145.85 179.28 148.49 179.4 148.42C179.52 148.34 179.62 130.33 179.62 108.39C179.62 73.2 179.57 68.49 179.18 68.36C178.93 68.28 161.33 68.21 140.07 68.21C109.44 68.21 101.36 68.29 101.21 68.58ZM73.63 105.47C59.68 119.47 41.57 137.64 33.39 145.84L18.53 160.74C18.6 164.07 18.97 166.7 19.4 168.74C19.83 170.78 20.79 174.38 21.54 176.75C22.28 179.11 23.53 182.52 24.32 184.31C25.1 186.11 26.23 188.51 26.83 189.65C27.43 190.79 28.39 192.53 28.98 193.51C29.56 194.48 30.75 196.39 31.62 197.73C32.62 199.27 33.39 200.18 33.72 200.17C34.01 200.17 48.51 185.81 66.69 167.53C88.25 145.84 99.31 134.92 99.64 134.99C99.92 135.04 104.65 139.69 110.15 145.31C115.66 150.94 126.84 162.35 134.99 170.67C143.14 178.99 152.95 189.01 156.79 192.94C160.63 196.87 163.9 200.12 164.06 200.15C164.22 200.18 165.17 198.96 166.17 197.45C167.17 195.93 168.46 193.89 169.03 192.91C169.6 191.93 170.6 190.07 171.25 188.76C171.91 187.46 172.97 185.12 173.63 183.57C174.29 182.02 175.23 179.55 175.72 178.08C176.21 176.62 176.89 174.35 177.22 173.04C177.55 171.74 178.08 169.34 178.4 167.7C178.71 166.07 179.05 163.94 179.15 162.96C179.27 161.77 179.2 160.96 178.96 160.54C178.75 160.18 172.59 153.78 165.26 146.3C157.93 138.83 145.33 125.97 137.26 117.73C129.19 109.5 119.72 99.85 116.2 96.29C112.69 92.73 107.51 87.66 104.69 85.02C101.87 82.38 99.44 80.17 99.29 80.11C99.13 80.06 87.59 91.47 73.63 105.47ZM88.15 158.01C81.94 164.16 68.37 177.59 57.99 187.87C47.6 198.15 39.11 206.69 39.11 206.85C39.11 207.01 40.81 208.82 42.9 210.87C44.98 212.92 47.75 215.45 49.06 216.49C50.36 217.52 53.03 219.42 54.98 220.71C56.94 222 60.41 223.96 62.69 225.08C64.97 226.2 68.31 227.65 70.1 228.31C71.89 228.97 74.56 229.86 76.03 230.28C77.5 230.7 79.9 231.3 81.36 231.61C82.83 231.92 85.57 232.41 87.44 232.7C90.08 233.11 92.68 233.23 99 233.23C105.42 233.23 107.84 233.12 110.41 232.7C112.2 232.41 114.87 231.92 116.34 231.61C117.81 231.3 120.67 230.56 122.71 229.97C124.75 229.38 127.62 228.42 129.09 227.84C130.55 227.26 133.29 226.02 135.16 225.09C137.04 224.16 139.9 222.58 141.53 221.58C143.16 220.57 146.09 218.51 148.03 217.01C149.98 215.49 153.14 212.61 155.08 210.56C157.02 208.52 158.57 206.76 158.52 206.64C158.47 206.53 156.3 204.26 153.7 201.6C151.1 198.94 145.96 193.7 142.28 189.95C138.6 186.2 128.86 176.25 120.62 167.85C112.39 159.45 104.39 151.28 102.84 149.68C101.3 148.08 99.9 146.79 99.74 146.8C99.58 146.81 94.36 151.86 88.15 158.01Z" />
		<path class="shp1" d="M95.74 168.49C94.35 168.64 92.09 169.1 90.7 169.52C89.31 169.95 87.2 170.78 85.99 171.37C84.79 171.96 82.65 173.32 81.25 174.39C79.84 175.46 77.92 177.27 76.96 178.4C76.01 179.53 74.71 181.32 74.08 182.38C73.44 183.44 72.5 185.38 71.99 186.68C71.48 187.99 70.82 190.26 70.51 191.73C70.21 193.21 69.96 195.65 69.95 197.21C69.95 198.76 70.14 201.1 70.39 202.4C70.63 203.71 71.17 205.78 71.59 207C72 208.22 72.89 210.22 73.55 211.45C74.22 212.67 75.33 214.41 76.02 215.3C76.71 216.2 78.13 217.73 79.18 218.71C80.22 219.69 81.88 221.02 82.85 221.66C83.83 222.31 85.69 223.33 87 223.94C88.3 224.55 90.5 225.35 91.89 225.73C94.03 226.3 95.12 226.41 99.15 226.4C103.13 226.39 104.29 226.29 106.41 225.72C107.8 225.35 110 224.55 111.3 223.94C112.61 223.33 114.47 222.31 115.44 221.66C116.42 221.02 118.07 219.69 119.11 218.71C120.15 217.73 121.64 216.07 122.41 215.01C123.19 213.95 124.24 212.34 124.74 211.45C125.24 210.55 126 208.88 126.43 207.74C126.87 206.6 127.47 204.43 127.78 202.92C128.09 201.41 128.34 198.98 128.34 197.51C128.34 196.04 128.09 193.54 127.79 191.95C127.48 190.36 126.86 188.12 126.4 186.98C125.95 185.84 125.25 184.3 124.85 183.57C124.44 182.84 123.5 181.37 122.75 180.31C122 179.25 120.52 177.53 119.46 176.5C118.4 175.46 116.46 173.91 115.15 173.06C113.85 172.21 111.85 171.1 110.71 170.61C109.57 170.11 107.77 169.48 106.71 169.21C105.65 168.94 103.58 168.59 102.11 168.44C100.65 168.29 99.18 168.18 98.85 168.19C98.53 168.21 97.13 168.35 95.74 168.49Z" />
		<path class="shp0" d="M95.15 172.79C94.74 172.85 93.61 173.12 92.63 173.38C91.65 173.64 90.05 174.21 89.07 174.66C88.09 175.1 87.13 175.69 86.92 175.96C86.6 176.39 86.69 176.48 87.66 176.64C88.27 176.75 90.17 176.74 91.89 176.63C93.6 176.53 95.4 176.33 95.89 176.2C96.74 175.98 96.78 175.89 96.78 174.36C96.78 173.15 96.67 172.74 96.33 172.71C96.09 172.69 95.55 172.73 95.15 172.79ZM101.37 174.38C101.37 175.19 101.5 175.93 101.67 176.01C101.83 176.09 104.13 176.36 106.78 176.6C109.43 176.85 111.71 176.95 111.85 176.82C111.99 176.7 111.99 176.41 111.85 176.17C111.71 175.93 110.73 175.35 109.67 174.87C108.61 174.4 106.94 173.76 105.97 173.46C104.99 173.15 103.55 172.9 102.78 172.9L101.37 172.89M90.18 180.92C88.51 181.07 86.81 181.33 86.4 181.49C85.87 181.71 85.28 182.58 84.32 184.53C83.58 186.04 82.88 187.8 82.76 188.44L82.55 189.6C84.39 189.25 85.02 189.1 85.14 189.03C85.27 188.96 85.37 188.37 85.37 187.72C85.37 186.86 85.57 186.33 86.09 185.79C86.49 185.39 87.06 185.05 87.35 185.05C87.65 185.05 88.15 185.24 88.48 185.47C88.8 185.71 89.21 186.35 89.39 186.89C89.64 187.66 89.9 187.89 90.58 187.97C91.05 188.02 91.74 187.98 92.11 187.89C92.58 187.77 92.78 187.5 92.78 186.98C92.78 186.57 92.98 185.77 93.22 185.2C93.62 184.26 93.78 184.16 94.85 184.16C96 184.16 96.06 184.21 96.78 185.79L97.52 187.43L101.07 187.43C101.36 185.7 101.66 184.96 101.93 184.67C102.21 184.37 102.82 184.15 103.37 184.15C104.04 184.16 104.47 184.37 104.77 184.83C105.01 185.2 105.31 185.95 105.44 186.5C105.56 187.05 105.8 187.6 105.97 187.72C106.13 187.84 106.93 188.03 107.74 188.14L109.23 188.33C109.8 186.48 110.27 185.74 110.63 185.5C111 185.25 111.5 185.04 111.75 185.04C111.99 185.03 112.5 185.27 112.88 185.56C113.39 185.95 113.62 186.52 113.77 187.72C113.95 189.21 114.03 189.35 114.71 189.35C115.37 189.35 115.44 189.24 115.38 188.32C115.33 187.74 114.78 186.21 114.14 184.91C113.5 183.6 112.74 182.3 112.44 182.01C112.14 181.72 111.09 181.35 110.12 181.19C109.14 181.02 104.94 180.84 100.78 180.77C96.62 180.7 91.85 180.77 90.18 180.92ZM117.08 180.98C117.07 181.18 117.19 181.48 117.34 181.64C117.49 181.81 118.01 182.87 118.49 184.02C118.97 185.16 119.59 187.06 119.85 188.24C120.13 189.46 120.34 191.65 120.34 193.28C120.33 194.9 120.13 196.96 119.87 197.95C119.62 198.93 119.15 200.47 118.82 201.36C118.5 202.26 117.77 203.83 117.21 204.85C116.65 205.87 116.19 207.04 116.19 207.44C116.19 207.85 116.47 209.35 116.81 210.78C117.15 212.21 117.54 213.51 117.67 213.67C117.82 213.85 118.33 213.39 118.97 212.49C119.55 211.67 120.46 210.2 121 209.22C121.53 208.24 122.18 206.91 122.43 206.26C122.69 205.6 123.13 204.14 123.42 203C123.77 201.58 123.93 199.78 123.93 197.36C123.92 194.48 123.78 193.28 123.17 191.06C122.76 189.55 121.96 187.41 121.41 186.31C120.86 185.21 119.79 183.48 119.04 182.46C118.29 181.44 117.54 180.6 117.38 180.6C117.21 180.6 117.08 180.77 117.08 180.98ZM79.31 182.53C78.53 183.51 77.42 185.25 76.84 186.39C76.27 187.53 75.49 189.73 75.1 191.28C74.56 193.43 74.39 194.89 74.39 197.43C74.4 199.44 74.59 201.63 74.88 202.92C75.15 204.1 75.72 205.94 76.15 207C76.59 208.06 77.42 209.66 78.02 210.56C78.61 211.45 79.44 212.52 79.86 212.93C80.28 213.34 80.72 213.56 80.84 213.42C80.97 213.28 81.24 212.55 81.46 211.79C81.67 211.03 81.92 209.68 82.02 208.78C82.18 207.29 82.1 206.94 81.01 204.77C80.36 203.47 79.44 201.33 78.99 200.03C78.3 198.09 78.13 197.01 78.02 194.1C77.92 191.52 78.01 189.97 78.35 188.46C78.6 187.32 79.29 185.25 79.87 183.87C80.46 182.48 80.89 181.21 80.84 181.05C80.79 180.89 80.1 181.55 79.31 182.53ZM90.77 192.36C90.24 192.42 89.81 192.57 89.81 192.69C89.81 192.81 89.67 193.71 89.51 194.69C89.34 195.67 89.04 196.64 88.84 196.85C88.64 197.07 87.98 197.23 87.37 197.23C86.55 197.22 86.13 197.03 85.81 196.55C85.56 196.18 85.36 195.38 85.36 194.77C85.36 194.07 85.23 193.65 84.99 193.65C84.79 193.65 84.17 193.75 83.62 193.87C83.07 194 82.53 194.3 82.4 194.54C82.28 194.79 82.38 195.92 82.61 197.06C82.85 198.21 83.6 200.25 84.28 201.6C85.27 203.58 85.69 204.11 86.4 204.35C86.92 204.52 92.29 204.63 99.22 204.63C106.47 204.63 111.44 204.51 111.89 204.33C112.3 204.17 112.99 203.47 113.43 202.77C113.87 202.08 114.61 200.38 115.08 198.99C115.61 197.43 115.89 196.02 115.84 195.28C115.75 194.19 115.68 194.1 114.88 194.1C114.13 194.1 113.97 194.25 113.74 195.14C113.59 195.71 113.25 196.41 112.98 196.7C112.7 197.01 112.08 197.23 111.52 197.22C110.86 197.22 110.42 197 110.11 196.55C109.87 196.18 109.67 195.24 109.67 194.47C109.67 193.28 109.57 193.02 109 192.8C108.64 192.65 107.74 192.49 107.01 192.43L105.68 192.32C105.34 194.62 105.07 195.44 104.86 195.63C104.65 195.82 104.22 196.02 103.89 196.06C103.56 196.11 102.93 196.05 102.48 195.94C101.9 195.79 101.59 195.46 101.39 194.77C101.23 194.24 101.07 193.47 101.02 193.06C100.93 192.38 100.79 192.31 99.3 192.23C98 192.16 97.59 192.25 97.29 192.67C97.08 192.97 96.92 193.54 96.93 193.95C96.94 194.36 96.67 195.06 96.34 195.51C96.01 195.96 95.54 196.32 95.29 196.32C95.05 196.32 94.51 196.16 94.1 195.95C93.69 195.75 93.23 195.25 93.08 194.84C92.92 194.43 92.76 193.7 92.71 193.21C92.66 192.68 92.45 192.31 92.18 192.29C91.94 192.27 91.3 192.31 90.77 192.36ZM86.59 209.45C86.41 209.81 85.85 211.78 85.35 213.82L84.45 217.53C85.5 218.32 86.68 219.01 87.74 219.56C88.8 220.11 90.53 220.85 91.59 221.2C92.65 221.55 94.25 221.86 95.15 221.9L96.78 221.98C96.91 213.24 96.88 210.27 96.79 209.74L96.63 208.78C87.05 208.78 86.92 208.79 86.59 209.45ZM101.84 209.14C101.32 209.5 101.29 209.89 101.4 215.75L101.52 221.98C104.05 221.85 105.65 221.53 106.71 221.19C107.77 220.85 109.56 220.08 110.68 219.49C111.81 218.9 113.02 218.15 113.38 217.82L114.03 217.23L111.89 208.93C103.68 208.79 102.26 208.87 101.84 209.14Z" />
	</g>
</svg>